<?xml version="1.0" standalone="no"?>
<!DOCTYPE svg PUBLIC "-//W3C//DTD SVG 20010904//EN"
 "http://www.w3.org/TR/2001/REC-SVG-20010904/DTD/svg10.dtd">
<svg version="1.0" xmlns="http://www.w3.org/2000/svg"
 width="1280.000000pt" height="1280.000000pt" viewBox="0 0 1280.000000 1280.000000"
 preserveAspectRatio="xMidYMid meet">
<metadata>
Created by potrace 1.14, written by Peter Selinger 2001-2017
</metadata>
<g transform="translate(0.000000,1280.000000) scale(0.100000,-0.100000)"
fill="#000000" stroke="none">
<path d="M2103 12732 l-23 -3 0 -2313 0 -2313 403 -1 c221 0 409 2 417 4 13 3
15 222 15 1896 l0 1893 3197 1 c1758 1 3201 5 3207 8 5 4 13 1 16 -4 4 -6 7
-863 7 -1904 l0 -1893 417 1 416 1 0 2313 1 2312 -66 1 c-318 2 -7990 3 -8007
1z"/>
<path d="M3768 11062 c-9 -2 -17 -13 -19 -25 -2 -12 -4 -789 -3 -1727 l1
-1705 27 -57 c14 -31 26 -59 26 -62 0 -2 21 -49 46 -103 44 -94 52 -111 74
-150 5 -10 28 -58 52 -108 23 -49 54 -111 70 -137 15 -27 25 -48 22 -48 -4 0
-2 -6 4 -12 6 -7 26 -42 45 -78 32 -61 46 -85 97 -175 11 -19 29 -50 39 -69
45 -79 115 -192 129 -208 8 -10 12 -18 8 -18 -4 0 4 -15 18 -33 15 -19 26 -39
26 -45 0 -7 5 -12 10 -12 6 0 10 -7 10 -15 0 -8 5 -15 10 -15 6 0 10 -5 10
-10 0 -6 61 -101 137 -213 75 -111 148 -219 161 -239 14 -21 29 -38 34 -38 4
0 8 -5 8 -11 0 -9 149 -219 170 -239 3 -3 25 -32 50 -65 51 -68 44 -59 111
-145 50 -64 79 -101 120 -150 11 -14 30 -38 42 -53 26 -34 46 -57 96 -117 21
-25 71 -83 111 -130 116 -137 153 -181 180 -210 14 -15 48 -54 77 -86 28 -33
64 -73 80 -90 15 -18 62 -69 103 -114 343 -378 963 -1001 1485 -1492 39 -37
108 -103 155 -148 132 -127 77 -115 520 -116 259 0 387 3 392 10 4 6 7 86 7
177 l1 167 -53 44 c-28 23 -57 47 -63 53 -7 5 -31 26 -55 45 -62 50 -186 157
-239 207 -25 23 -56 51 -70 63 -191 163 -1018 984 -1400 1390 -184 195 -198
211 -250 270 -25 28 -61 68 -80 88 -32 34 -117 129 -170 192 -73 86 -96 114
-105 124 -17 19 -198 238 -240 291 -22 28 -43 52 -47 53 -5 2 -8 8 -8 13 0 5
-8 18 -17 28 -20 22 -21 23 -88 111 -27 36 -53 67 -57 68 -4 2 -8 8 -8 13 0 6
-5 15 -10 22 -39 46 -50 61 -50 68 0 5 -8 16 -18 26 -10 10 -40 50 -67 88 -27
39 -53 72 -57 73 -4 2 -8 8 -8 13 0 11 -102 163 -112 167 -5 2 -8 9 -8 16 0 7
-9 21 -20 31 -11 10 -20 22 -20 27 0 5 -17 35 -39 66 -37 56 -210 342 -224
372 -4 8 -23 42 -42 75 -97 168 -381 764 -389 819 -1 6 -4 16 -8 21 -22 37
-198 551 -198 581 0 8 -4 22 -9 32 -8 14 -49 164 -67 244 -2 10 -6 26 -8 36
-11 48 -36 160 -40 182 -3 14 -9 50 -15 80 -6 30 -13 69 -16 85 -2 17 -7 41
-10 55 -3 14 -8 45 -11 70 -3 25 -8 56 -10 70 -5 28 -13 85 -18 145 -3 22 -7
63 -10 90 -3 28 -8 86 -11 129 -2 43 -7 81 -9 84 -3 2 -1 13 5 23 5 11 6 19 1
19 -10 0 -8 475 2 610 9 132 13 167 31 285 2 17 7 53 10 80 3 28 10 73 15 100
6 28 13 68 16 90 3 22 10 48 15 57 12 22 5 25 -61 27 -126 4 -308 6 -322 3z"/>
<path d="M4895 11062 c-2 -2 -38 -5 -81 -5 -86 -2 -84 0 -100 -96 -3 -18 -8
-43 -10 -55 -21 -90 -52 -287 -60 -376 -14 -156 -18 -253 -18 -475 0 -279 7
-405 35 -610 6 -44 12 -91 14 -105 2 -14 6 -41 10 -60 4 -19 8 -46 10 -60 2
-14 6 -35 9 -46 2 -12 7 -37 10 -55 11 -68 18 -97 52 -234 20 -77 37 -149 39
-160 6 -35 47 -165 107 -340 32 -93 60 -174 62 -180 6 -18 18 -50 26 -70 5
-11 39 -92 75 -180 71 -171 248 -532 333 -679 29 -49 52 -92 52 -95 0 -4 7
-16 15 -26 17 -22 111 -177 129 -212 6 -13 14 -23 19 -23 4 0 7 -7 7 -15 0 -8
3 -15 8 -15 4 0 18 -20 31 -45 13 -25 28 -45 32 -45 5 0 9 -5 9 -10 0 -9 81
-134 112 -175 5 -5 45 -62 90 -125 45 -63 86 -117 90 -118 4 -2 6 -8 2 -13 -3
-5 -1 -9 3 -9 5 0 31 -30 59 -67 27 -38 54 -75 61 -83 6 -8 51 -64 99 -125 48
-60 101 -126 118 -146 17 -20 45 -53 62 -75 30 -36 59 -71 102 -119 10 -11 47
-54 83 -95 35 -41 73 -84 84 -96 11 -11 47 -52 80 -89 33 -38 76 -85 95 -105
19 -20 76 -81 125 -135 339 -369 1443 -1464 1520 -1508 11 -6 13 92 14 555 l0
563 -34 22 c-19 13 -39 23 -44 23 -5 0 -11 3 -13 8 -1 4 -43 34 -92 67 -97 65
-217 158 -306 235 -178 155 -355 332 -540 540 -36 40 -69 78 -75 84 -5 6 -41
47 -80 91 -38 44 -74 85 -80 91 -15 16 -108 124 -127 148 -10 11 -26 30 -36
41 -15 16 -75 89 -172 208 -8 10 -22 27 -30 37 -8 9 -26 32 -40 50 -48 63
-152 195 -171 218 -10 12 -19 24 -19 27 0 2 -29 44 -65 92 -36 48 -69 93 -73
98 -4 6 -20 30 -37 55 -16 25 -32 47 -35 50 -4 3 -17 23 -30 45 -13 22 -27 42
-30 45 -4 3 -35 51 -71 108 -90 144 -109 175 -116 192 -3 8 -14 26 -23 40 -56
83 -211 390 -306 605 -24 55 -91 229 -113 295 -13 36 -25 72 -28 80 -4 8 -7
17 -8 20 0 3 -10 34 -22 70 -12 36 -39 135 -61 220 -34 135 -45 181 -58 250
-2 8 -6 31 -10 50 -4 19 -8 46 -9 60 -1 14 -7 52 -13 85 -44 240 -57 668 -27
945 2 19 6 60 9 90 5 49 16 116 31 195 3 17 8 43 10 59 2 15 7 36 10 46 3 10
7 27 9 37 4 17 34 145 40 168 2 6 6 17 9 25 20 54 34 109 29 114 -3 3 -1 6 4
6 5 0 10 9 11 20 1 10 8 34 16 52 26 59 48 120 44 124 -5 5 -837 10 -842 6z"/>
<path d="M6624 11062 l-270 -2 -24 -53 c-91 -204 -143 -353 -186 -527 -2 -8
-8 -33 -13 -56 -6 -23 -13 -59 -16 -80 -9 -58 -13 -79 -15 -79 -1 0 -3 -16 -6
-35 -2 -19 -6 -48 -9 -65 -21 -134 -28 -562 -11 -715 4 -41 9 -91 11 -110 7
-61 14 -115 15 -115 1 0 3 -14 5 -32 3 -17 16 -84 30 -150 14 -65 28 -129 31
-143 3 -14 14 -56 25 -95 12 -38 24 -83 28 -100 30 -118 195 -543 220 -568 6
-6 11 -16 11 -23 0 -19 149 -304 226 -434 37 -63 66 -117 65 -119 -1 -2 1 -7
6 -10 4 -3 20 -24 34 -46 74 -115 125 -191 130 -195 3 -3 15 -21 27 -40 11
-20 30 -47 42 -59 11 -13 20 -28 20 -32 0 -4 6 -14 13 -21 6 -7 59 -76 117
-153 57 -77 107 -142 110 -145 3 -3 55 -66 114 -140 60 -74 115 -139 123 -143
7 -4 13 -12 13 -17 0 -5 12 -22 28 -38 15 -16 38 -42 51 -58 31 -37 220 -252
246 -280 11 -12 52 -57 90 -100 74 -83 343 -355 410 -414 46 -40 152 -129 177
-149 16 -12 17 24 17 602 l-1 615 -31 13 c-18 7 -65 27 -105 46 -40 18 -77 33
-82 33 -6 0 -10 5 -10 12 0 6 -3 9 -6 5 -3 -3 -23 4 -43 17 -20 12 -43 25 -52
28 -9 4 -48 27 -88 52 -39 25 -75 46 -80 46 -5 0 -11 3 -13 8 -1 4 -25 23 -53
42 -27 19 -54 38 -60 42 -52 41 -132 106 -145 118 -131 121 -215 209 -295 310
-60 75 -69 87 -92 114 -7 8 -13 18 -13 22 0 4 -15 27 -33 53 -123 173 -279
522 -332 741 -2 8 -4 16 -5 18 -2 1 -4 7 -5 12 -1 6 -3 11 -4 13 -2 1 -4 15
-6 30 -2 16 -11 61 -20 100 -10 40 -18 83 -20 97 -1 14 -5 39 -8 55 -7 36 -14
85 -23 180 -9 84 -9 465 0 550 16 170 21 202 61 405 3 14 17 72 31 130 14 58
27 110 27 115 1 6 5 12 9 15 4 3 9 17 11 30 2 14 7 32 10 40 4 8 18 49 33 90
15 41 31 86 37 100 6 14 11 27 12 30 23 73 153 328 244 477 l80 132 -150 3
c-83 2 -156 1 -164 -2 -8 -3 -63 -3 -122 0 -59 3 -230 4 -379 2z"/>
<path d="M8139 11040 c-76 -79 -225 -280 -311 -421 -68 -108 -180 -330 -185
-363 -2 -11 -9 -26 -15 -34 -7 -8 -13 -19 -14 -26 -1 -6 -13 -41 -27 -78 -14
-37 -22 -69 -19 -72 3 -3 0 -6 -6 -6 -7 0 -11 -3 -10 -7 1 -5 -8 -46 -21 -93
-13 -47 -24 -89 -26 -95 -1 -5 -5 -21 -8 -35 -4 -14 -9 -36 -11 -50 -3 -14 -7
-34 -9 -45 -4 -18 -12 -67 -22 -135 -19 -126 -26 -489 -12 -609 11 -94 47
-284 66 -349 5 -18 9 -33 9 -35 -2 -3 31 -107 42 -132 4 -11 20 -51 36 -90 26
-65 109 -235 137 -280 116 -187 266 -363 405 -475 24 -19 53 -43 64 -52 12
-10 53 -39 92 -65 39 -27 73 -50 76 -53 3 -3 16 -11 30 -18 14 -7 41 -22 60
-32 19 -10 38 -19 42 -20 4 0 6 831 5 1847 l-2 1848 -171 0 c-170 0 -171 0
-195 -25z"/>
<path d="M3746 5621 l0 -708 119 -159 c65 -87 122 -163 127 -169 5 -5 29 -37
54 -70 72 -95 214 -274 239 -302 5 -6 21 -26 35 -44 14 -18 34 -43 45 -56 11
-12 31 -36 45 -53 14 -17 30 -36 35 -43 6 -7 35 -41 64 -76 29 -35 58 -70 64
-76 7 -6 26 -29 44 -51 17 -21 48 -57 68 -79 20 -22 51 -58 68 -79 18 -21 43
-51 57 -66 14 -14 57 -62 95 -105 75 -85 73 -82 186 -206 150 -163 330 -354
512 -542 l139 -142 565 0 c310 -1 566 2 568 5 2 3 -76 82 -173 175 -288 279
-989 985 -976 985 2 0 -18 21 -44 48 -26 26 -85 89 -132 141 -47 52 -94 104
-105 116 -47 51 -105 115 -170 190 -86 98 -82 93 -130 150 -22 27 -47 55 -56
64 -9 9 -91 108 -183 221 -91 113 -175 216 -186 228 -11 13 -20 27 -20 30 0 4
-16 25 -35 47 -19 22 -38 45 -43 50 -57 77 -98 131 -102 135 -3 3 -18 24 -34
48 -16 23 -33 42 -38 42 -5 0 -7 4 -4 9 4 5 2 11 -2 13 -9 3 -292 405 -292
414 0 3 -11 20 -25 38 -14 17 -29 36 -33 41 -5 6 -8 12 -8 15 0 3 -26 44 -57
92 -31 47 -57 91 -57 96 0 5 -7 13 -16 16 -9 4 -14 9 -11 13 4 3 -6 22 -22 42
-16 20 -29 39 -30 44 -1 10 -34 61 -44 68 -5 3 -9 10 -9 15 -1 5 -11 25 -23
44 -12 19 -30 50 -39 68 -9 17 -20 32 -24 32 -4 0 -7 -319 -6 -709z"/>
<path d="M2085 5542 c-3 -3 -5 -1043 -5 -2312 l0 -2307 3828 -1 c2105 0 3832
-1 3838 -1 8 -1 11 -116 11 -411 0 -226 3 -413 6 -416 3 -3 190 -7 416 -7
l411 -2 0 73 c1 94 1 1511 0 1560 l0 37 -205 0 c-113 0 -206 2 -206 5 -1 3 -2
856 -3 1895 l-1 1890 -415 0 -415 0 -2 -1865 c-1 -1026 -2 -1879 -2 -1895 l-1
-30 -3212 0 -3213 0 -2 1880 c0 1034 -2 1887 -2 1896 -1 14 -45 15 -411 15
-226 0 -412 -2 -415 -4z"/>
<path d="M3749 3970 c-4 -21 -3 -1364 1 -1369 8 -11 1190 -9 1190 2 0 5 -17
26 -37 47 -21 20 -81 83 -133 140 -52 57 -111 120 -130 141 -30 33 -146 161
-175 193 -129 146 -162 183 -170 194 -5 7 -23 28 -40 47 -16 18 -44 51 -62 72
-17 21 -41 49 -53 63 -12 14 -36 42 -53 64 -18 21 -36 43 -42 50 -8 9 -36 42
-120 143 -5 7 -15 18 -20 25 -36 46 -140 175 -147 183 -4 5 -8 7 -9 5z"/>
</g>
</svg>
