<svg width="1681" height="471" viewBox="0 0 1681 471" fill="none" xmlns="http://www.w3.org/2000/svg">
<g clip-path="url(#clip0_7_44)">
<path d="M1039.6 -12.5106C1065.44 11.1915 1094.83 37.9748 1129.6 52.117C1158.05 63.731 1189.03 66.5753 1219.14 66.5753C1234.31 66.5753 1249.25 65.8642 1263.47 65.1531C1296.5 63.573 1330.64 61.9139 1362.41 49.9048C1397.81 36.5527 1424.21 10.7964 1432.98 -18.9891C1441.67 -48.5377 1433.77 -79.2713 1426.11 -108.978C1423.34 -119.723 1420.49 -130.784 1418.52 -141.608C1406.67 -205.366 1423.26 -270.468 1438.99 -320.005C1444.28 -336.676 1450.13 -353.583 1455.82 -369.859C1469.73 -410.073 1484.19 -451.71 1491.78 -494.452C1499.6 -538.222 1495.25 -570.773 1478.66 -593.922C1451.87 -631.292 1400.9 -635.874 1355.3 -637.297C1273.27 -639.825 1188.4 -642.432 1107.56 -619.125C1080.21 -611.224 1061.49 -598.504 1039.83 -583.73C1038.01 -582.466 1036.2 -581.281 1034.38 -580.017C1027.66 -575.434 1020.87 -570.931 1014.23 -566.506C987.913 -548.967 960.65 -530.874 936.468 -508.752C892.688 -468.538 863.607 -422.556 852.465 -375.626C844.483 -342.285 844.878 -306.495 853.571 -269.204C861.315 -235.863 875.935 -201.574 895.849 -169.971C934.176 -108.82 987.755 -59.8357 1039.6 -12.5106Z" stroke="#FFB816" stroke-width="2" stroke-miterlimit="10"/>
<path d="M612.071 573.404C615.549 558.393 623.767 543.46 632.144 528.054C640.283 513.122 648.739 497.716 652.69 481.914C666.599 425.819 621.95 372.49 581.963 337.648C533.995 295.774 452.046 217.32 442.642 162.332C431.342 96.4399 480.969 37.5007 511.631 8.26816C523.801 -3.34584 536.919 -14.6438 549.563 -25.4677C580.224 -51.856 611.913 -79.1134 633.171 -113.955C684.379 -197.861 705.637 -255.773 717.57 -343.47C741.356 -518.312 867.717 -674.825 1032.09 -732.895C1082.59 -750.75 1136.16 -759.915 1188 -768.685C1220.09 -774.136 1253.28 -779.825 1285.36 -787.489C1367.79 -807.161 1423.73 -844.848 1487.27 -899.204C1517.62 -925.197 1563.06 -924.328 1595.77 -918.956C1638.68 -912.003 1679.62 -894.464 1703.64 -880.322C1736.75 -860.886 1764.73 -833.155 1784.48 -800.209C1805.19 -765.762 1815.22 -728.075 1813.41 -691.258C1811.11 -643.538 1790.33 -597.635 1770.1 -553.233C1742.76 -493.109 1717 -436.303 1734.54 -376.574C1749.16 -326.8 1788.91 -294.249 1830.95 -259.881C1856.4 -239.023 1882.79 -217.454 1902.94 -191.698C1937.48 -147.533 1953.04 -88.7522 1946.8 -26.2578C1940.79 33.4714 1914.8 91.7785 1875.36 133.573C1796.89 216.767 1674.48 256.034 1555.79 236.124C1501.65 227.038 1485.3 224.273 1429.11 225.853C1377.35 227.275 1314.92 254.454 1300.3 310.548C1286.55 363.325 1309.86 406.463 1332.46 448.178C1353.24 486.497 1374.58 526.079 1367.94 573.562" stroke="#FFB816" stroke-width="2" stroke-miterlimit="10"/>
<path d="M928.882 573.405C894.111 568.822 861.315 564.556 832.471 564.556H830.812C808.448 564.714 785.452 564.082 762.535 562.66C715.831 559.816 687.303 546.937 675.291 523.235C662.963 498.901 671.182 475.041 679.875 449.759C684.3 436.881 688.883 423.687 690.701 410.019C696.233 369.962 677.82 324.928 634.435 272.152C631.669 268.833 628.904 265.436 626.138 262.118L623.609 259.036C598.479 228.619 567.106 190.854 562.049 142.422C556.122 85.4585 590.023 31.8128 616.023 -3.58226C622.029 -11.799 628.192 -19.8577 634.119 -27.7583C659.249 -60.8622 682.957 -92.1489 699.947 -131.81C701.527 -135.524 703.108 -139.316 704.609 -143.266C719.624 -182.928 724.049 -226.065 728.317 -267.781C731.241 -296.065 734.244 -325.298 740.487 -353.661C741.514 -358.165 742.62 -365.433 743.806 -373.097C745.465 -384.079 747.283 -395.535 749.021 -401.698C766.881 -463.797 799.044 -521.156 847.17 -577.093C876.172 -611.066 913.946 -640.851 959.464 -665.817C997.791 -686.833 1041.97 -704.768 1094.52 -720.727C1138.3 -734 1184.53 -740.637 1229.18 -747.115C1254.23 -750.75 1280.07 -754.463 1305.2 -759.283C1373.95 -772.793 1421.36 -799.971 1471.47 -836.551C1472.65 -837.42 1473.84 -838.289 1475.02 -839.079C1521.41 -872.736 1609.44 -846.348 1654.33 -817.827C1710.75 -782.036 1746.08 -714.96 1744.34 -646.856C1744.02 -633.109 1742.2 -618.729 1738.96 -602.849C1734.14 -579.068 1726.79 -555.84 1719.68 -533.323C1702.38 -478.65 1686.02 -426.98 1705.93 -373.334C1721.03 -332.567 1753.35 -303.966 1787.49 -273.628C1810.48 -253.323 1834.19 -232.228 1851.97 -207.262C1881.13 -166.336 1893.38 -113.007 1886.58 -57.0699C1879.94 -2.79217 1856.32 47.9301 1820.12 85.6954C1806.85 99.6006 1791.83 112.084 1775.55 122.829C1728.14 154.115 1671.08 170.628 1626.75 181.61C1620.19 183.269 1613.39 185.086 1606.2 187.061C1582.65 193.54 1558.39 200.334 1537.29 199.307C1527.73 198.833 1519.67 198.359 1512.56 197.885C1487.82 196.305 1472.89 195.436 1436.46 198.754C1395.76 202.468 1348.19 216.452 1312.31 235.414C1281.65 251.61 1264.34 280.605 1262.37 319.24C1258.34 396.666 1232.18 476.858 1195.91 523.551C1176.07 548.992 1150.86 564.477 1122.33 573.326" stroke="#FFB816" stroke-width="2" stroke-miterlimit="10"/>
<path d="M1442.78 573.403C1443.89 570.796 1444.91 568.268 1445.86 565.74C1463.17 520.39 1451.55 464.769 1417.65 430.48C1413.07 425.819 1407.93 421.315 1402.95 416.97C1389.52 405.198 1375.61 393.11 1370 375.807C1365.18 361.033 1367.63 344.442 1376.79 329.193C1385.33 315.051 1398.84 303.358 1413.94 297.117C1444.52 284.317 1478.89 288.189 1509.24 291.586C1535.48 294.509 1562.58 297.512 1587.24 308.889C1614.82 321.53 1634.26 343.731 1639.24 368.223C1646.27 402.749 1626.2 435.3 1605.02 465.638C1594.67 480.491 1583.76 495.424 1573.25 509.882C1558.16 530.582 1542.75 551.756 1528.28 573.403" stroke="#FFB816" stroke-width="2" stroke-miterlimit="10"/>
<path d="M966.814 476.463C984.594 478.754 1001.74 480.966 1018.02 480.966C1026.71 480.966 1035.09 480.334 1043.15 478.754C1068.99 473.697 1089.38 459.476 1107.16 433.957C1132.84 397.14 1154.34 338.28 1156 330.142C1157.42 323.189 1158.45 315.447 1159.55 307.151C1164.45 269.465 1170.54 222.614 1225.46 204.6C1244.51 198.358 1287.02 201.44 1309.86 203.099C1317.68 203.652 1322.82 204.047 1324.64 203.889C1356.64 200.808 1385.33 194.092 1410.62 188.167C1422.87 185.322 1434.48 182.557 1444.76 180.74C1483.16 173.708 1507.58 168.02 1537.93 159.013C1552.07 154.826 1564.56 147.952 1577.67 140.605C1583.84 137.207 1590.24 133.652 1597.19 130.176C1611.5 123.065 1627.22 116.586 1643.82 109.713C1671.32 98.4149 1699.77 86.6429 1725.06 70.5255C1739.6 61.2027 1753.11 50.2997 1765.12 37.9747C1797.52 4.87081 1819.25 -39.7681 1826.52 -87.6462C1833.95 -136.867 1824.94 -184.746 1801.24 -222.59C1785.67 -247.398 1764.02 -268.493 1743.15 -288.956C1718.18 -313.369 1692.34 -338.572 1677.4 -369.859C1653.38 -420.107 1660.41 -469.644 1667.76 -522.105C1669.66 -535.694 1671.71 -549.757 1673.14 -564.136C1674.72 -578.832 1675.43 -590.92 1675.35 -602.376C1675.27 -633.03 1669.26 -662.816 1658.04 -688.572C1645.79 -716.778 1627.93 -739.215 1605.1 -755.254C1586.53 -768.29 1560.53 -779.193 1535.48 -784.407C1514.93 -788.753 1485.61 -791.281 1462.85 -778.877C1461.82 -778.324 1460.88 -777.771 1459.93 -777.218C1412.28 -750.513 1373.32 -737.082 1325.27 -730.92C1307.57 -728.629 1289.39 -726.89 1271.85 -725.152C1233.76 -721.439 1194.4 -717.568 1157.03 -708.403C1072.86 -687.782 977.166 -660.525 906.755 -597.635C851.121 -547.861 810.108 -495.953 784.899 -443.256C780.631 -434.407 776.601 -425.005 772.492 -414.418C757.477 -375.705 751.787 -330.039 746.413 -285.874C742.778 -256.642 739.38 -228.989 733.453 -203.075C732.505 -198.967 731.636 -195.253 730.688 -191.619C719.15 -145.005 705.321 -104.87 684.3 -57.4656L682.087 -52.4881C664.307 -12.3527 644.076 33.0763 645.262 80.4014C646.368 122.986 662.331 158.144 680.033 193.302C682.245 197.727 684.537 202.23 686.75 206.654C707.059 246.711 728.791 293.246 728.554 338.201C728.475 348.472 727.448 358.505 726.42 368.223C723.812 393.11 721.363 416.575 736.614 438.855C750.365 458.844 777.312 470.221 816.666 472.67C837.45 473.934 858.155 473.697 878.227 472.038C910.469 469.273 940.419 473.065 966.814 476.463Z" stroke="#FFB816" stroke-width="2" stroke-miterlimit="10"/>
<path d="M885.813 383.156C899.405 383.156 912.84 381.892 925.879 379.442C985.463 368.223 1012.89 332.828 1041.97 295.379C1055.64 277.761 1069.7 259.589 1087.88 242.761C1091.75 239.126 1096.18 234.86 1100.84 230.357C1117.75 214.002 1138.77 193.697 1156.63 183.268C1177.34 171.18 1214.32 166.045 1234 166.203C1243.56 166.282 1252.33 166.124 1260.71 165.887C1282.75 165.413 1303.62 164.939 1334.75 169.6C1353.64 172.445 1366.76 172.049 1376.4 171.733C1377.66 171.654 1378.93 171.654 1380.03 171.654C1404.77 171.101 1438.67 162.727 1460.24 155.695C1464.91 154.115 1469.41 152.693 1473.76 151.35C1497.07 144.002 1515.56 138.156 1531.05 123.855C1538.16 117.298 1543.38 109.792 1548.91 101.812C1554.28 94.0698 1559.82 86.0111 1567.48 78.5845C1583.92 62.7831 1606.76 51.9592 1630.94 40.5822C1645.56 33.7086 1660.65 26.598 1674.32 18.2232C1687.12 10.4016 1699.06 0.99975 1709.8 -9.74518C1738.33 -38.1876 1758.33 -76.7429 1766.07 -118.222C1773.97 -160.727 1768.36 -203.233 1750.11 -237.917C1736.12 -264.621 1715.18 -287.454 1694.95 -309.497C1678.51 -327.432 1661.52 -345.998 1648.4 -366.461C1616.32 -416.472 1608.73 -464.429 1606.99 -525.502C1606.91 -528.978 1606.84 -532.454 1606.76 -536.01C1606.6 -543.12 1606.44 -550.468 1606.12 -557.816C1604.23 -603.165 1596.8 -659.418 1555.71 -692.522C1530.73 -712.669 1484.66 -727.917 1450.68 -718.673C1449.89 -718.436 1449.1 -718.278 1448.31 -718.041C1414.49 -708.007 1382.64 -703.267 1345.11 -702.635C1337.52 -702.477 1329.77 -702.477 1322.35 -702.398C1288.13 -702.082 1252.65 -701.766 1219.38 -696.156C1136.4 -682.172 1041.57 -662.974 965.628 -612.567L958.674 -607.906C908.73 -574.802 869.218 -548.572 833.42 -499.192C827.73 -491.371 822.119 -482.759 816.667 -473.752C788.218 -426.19 784.029 -357.691 780.315 -297.33C779.604 -285.716 778.893 -274.734 778.103 -264.147C777.786 -260.276 777.549 -256.483 777.312 -252.691C775.969 -232.07 776.522 -212.714 777.075 -193.989C777.865 -167.206 778.656 -141.924 774.072 -114.666C770.99 -96.1786 760.085 -76.98 748.547 -56.6753C735.192 -33.1312 721.284 -8.71808 719.624 15.695C717.648 44.3745 724.05 72.1059 730.293 98.9682C732.584 108.765 734.718 118.088 736.456 127.332C737.326 132.23 738.195 136.654 739.143 141C742.225 156.011 745.939 171.496 749.812 187.851C756.055 213.923 762.456 240.943 766.486 266.463C766.96 269.544 767.434 272.625 767.908 275.627C772.492 305.887 776.443 332.038 798.175 354.555C818.247 375.334 848.83 381.418 871.036 382.761C876.093 382.998 880.993 383.156 885.813 383.156Z" stroke="#FFB816" stroke-width="2" stroke-miterlimit="10"/>
<path d="M859.893 270.018C881.546 285.029 908.098 292.93 934.492 292.93C947.769 292.93 960.966 290.954 973.452 286.925C1011.94 274.442 1041.81 245.051 1070.65 216.688C1098.07 189.747 1126.44 161.857 1162 148.663C1194.48 136.654 1243.24 124.25 1291.45 133.889C1337.2 143.054 1374.5 144.871 1416.15 140.13C1438.83 137.523 1461.11 129.464 1478.97 117.297C1498.81 103.866 1512.56 86.0107 1518.72 65.706C1522.36 53.6969 1525.28 49.0355 1529 43.031C1531.52 39.0016 1534.37 34.4982 1538 26.8346C1549.46 2.8165 1574.75 -9.42955 1599.17 -21.3596C1607.47 -25.3889 1616 -29.4973 1623.9 -34.0797C1658.91 -54.3054 1686.1 -88.2783 1700.48 -129.915C1714.78 -171.552 1714.47 -215.321 1699.45 -253.245C1683.25 -294.091 1652.59 -327.59 1622.88 -359.983C1588.19 -397.827 1552.31 -436.935 1541.24 -487.105C1537.85 -502.59 1536.74 -519.498 1535.63 -535.773C1533.34 -570.22 1530.97 -605.773 1506.79 -629.87C1488.77 -647.884 1462.93 -654.362 1437.64 -658.787C1422.55 -661.394 1407.06 -664.949 1390.62 -668.742C1354.27 -677.116 1316.74 -685.728 1282.28 -683.99C1195.04 -679.486 1108.11 -658.076 1031.06 -622.048C963.415 -590.446 927.696 -557.263 877.516 -499.193C856.416 -474.78 839.821 -445.231 829.469 -413.707C819.116 -382.184 814.928 -348.369 817.299 -316.055C819.195 -290.773 819.037 -267.229 818.879 -244.475C818.721 -219.351 818.563 -193.357 821.171 -165.231C825.833 -114.825 815.876 -64.0232 806.314 -14.802C801.415 10.0852 796.436 35.7624 793.275 61.2026C789.719 90.4351 787.901 134.284 799.518 177.738C810.423 218.742 830.733 249.792 859.893 270.018Z" stroke="#FFB816" stroke-width="2" stroke-miterlimit="10"/>
<path d="M856.969 220.322C875.303 238.652 901.697 248.528 929.514 248.528C941.289 248.528 953.379 246.79 965.154 243.076C1007.12 230.119 1037.3 197.964 1055.32 173.313C1068.44 155.379 1076.18 139.815 1079.66 124.408C1084.17 104.499 1081 84.9838 1071.05 70.8416C1058.25 52.512 1036.51 45.0064 1015.41 37.7378C1010.99 36.1576 1006.33 34.5775 1001.98 32.9183C965.075 18.9341 932.122 -5.637 906.755 -38.2668C905.965 -39.2939 905.174 -40.321 904.384 -41.3481C893.084 -56.0433 883.284 -68.7634 862.975 -53.1201C845.59 -39.6889 836.107 -14.9598 831.997 -1.44961C823.858 25.4127 823.147 53.7761 822.435 81.1915C821.171 132.862 822.752 186.034 856.969 220.322Z" stroke="#FFB816" stroke-width="2" stroke-miterlimit="10"/>
<path d="M893.795 73.5279C883.996 90.2773 890.95 121.406 899.88 134.679C909.6 149.058 925.089 158.855 941.368 160.83C943.422 161.067 945.556 161.225 947.611 161.225C958.437 161.225 968.631 157.749 976.376 151.429C986.57 143.054 991.785 129.781 989.652 117.614C986.886 101.733 969.579 88.2231 959.464 81.5865C944.687 71.9477 927.38 64.8371 915.369 63.573C905.649 62.5459 898.22 65.9432 893.795 73.5279Z" stroke="#FFB816" stroke-width="2" stroke-miterlimit="10"/>
</g>
<defs>
<clipPath id="clip0_7_44">
<rect width="1681" height="471" fill="white"/>
</clipPath>
</defs>
</svg>
