<svg width="1436" height="500" viewBox="0 0 1436 500" fill="none" xmlns="http://www.w3.org/2000/svg">
<g clip-path="url(#clip0_4_25)">
<path d="M858.724 83.454C846.836 104.071 845.955 129.527 856.586 148.446C865.769 164.789 883.634 174.846 900.932 174.846C905.461 174.846 909.927 174.154 914.205 172.708C931.88 166.8 945.782 149.892 955.595 122.424C959.495 111.55 963.835 97.1564 963.08 82.134C962.325 66.7973 956.098 53.4091 945.97 45.3636C938.108 39.141 928.483 37.0667 917.224 39.2667C894.39 43.6665 869.04 65.6659 858.724 83.454Z" stroke="#FFB816" stroke-width="2" stroke-miterlimit="10"/>
<path d="M819.222 87.4137C814.693 105.705 817.146 126.824 826.267 146.938C834.696 165.669 847.591 181.445 860.297 195.776C867.782 204.136 876.023 212.684 886.15 218.341C898.793 225.444 913.387 227.581 925.905 228.712C930.371 229.152 935.151 229.467 940.12 229.467C945.593 229.467 951.191 229.027 956.727 227.832C966.917 225.57 976.227 219.913 982.202 212.307C990.191 202.25 992.644 190.748 995.286 178.68L995.789 176.291C999.941 157.372 1007.05 135.624 1014.03 115.007C1020.82 95.0192 1026.55 76.9169 1028.44 57.9974C1029 52.4033 1029.13 46.8092 1028.94 41.4665C1028.18 24.9984 1023.47 11.9873 1014.85 2.81046C1006.04 -6.61784 992.393 -11.1434 973.019 -11.0177C944.901 -10.892 917.475 -4.98361 893.698 6.01607C884.514 10.2902 877.595 15.8843 870.802 21.2899C861.303 28.9582 850.295 38.0723 841.363 48.192C829.978 60.8259 822.555 74.0255 819.222 87.4137Z" stroke="#FFB816" stroke-width="2" stroke-miterlimit="10"/>
<path d="M786.323 73.8366C779.278 102.939 785.002 136.44 802.552 168.12C817.901 195.902 840.105 219.095 863.379 242.352C876.211 255.111 888.981 267.242 904.518 274.534C923.829 283.585 945.782 284.653 966.54 284.905C968.804 284.905 971.069 284.968 973.333 284.968C986.668 284.968 1000.44 284.276 1013.34 280.253C1029.44 275.288 1042.78 264.54 1049.07 251.529C1055.86 237.575 1055.23 222.992 1054.6 207.593C1054.41 203.444 1054.29 199.17 1054.23 194.959C1054.1 164.914 1063.54 132.103 1071.78 106.899C1072.91 103.379 1074.1 99.8587 1075.3 96.3388C1082.15 75.7851 1089.2 54.6029 1093.04 33.1693C1094.36 25.8781 1095.24 18.6497 1095.68 11.6727C1097.13 -10.7666 1092.79 -28.3033 1082.85 -40.4972C1068.25 -58.3481 1042.78 -60.988 1022.21 -61.2394C991.638 -61.6794 946.033 -60.548 903.637 -45.0856C890.364 -40.2458 881.055 -33.3945 870.173 -25.4747L866.021 -22.4577C850.673 -11.2066 836.142 -0.584044 823.31 12.2384C804.062 31.5979 791.544 52.3401 786.323 73.8366Z" stroke="#FFB816" stroke-width="2" stroke-miterlimit="10"/>
<path d="M778.398 188.799C800.539 225.569 831.173 255.74 866.084 288.488C884.64 306.087 901.687 321.361 922.445 330.286C942.762 339.023 964.59 340.909 988.43 340.909C994.405 340.909 1000.51 340.783 1006.8 340.658C1025.48 340.155 1048.75 339.589 1069.57 332.298C1091.72 324.504 1108.89 308.916 1115.56 290.499C1122.29 271.894 1118.83 252.22 1115.49 233.238C1114.36 226.764 1113.17 220.038 1112.41 213.501C1107.63 173.148 1118.95 130.847 1129.33 98.5389C1132.04 90.1791 1134.87 81.7566 1137.63 73.5225C1144.87 52.2146 1152.35 30.1523 1157.45 7.96442C1159.53 -1.1496 1161.16 -10.0122 1162.29 -18.4348C1166.07 -47.2225 1162.29 -68.7191 1150.66 -84.1186C1133.23 -107.124 1102.22 -111.021 1071.21 -111.712C1019.69 -112.969 965.093 -112.843 913.324 -96.3754C896.026 -90.907 884.011 -82.5472 870.11 -72.8047L866.839 -70.479C863.253 -67.9648 859.668 -65.5134 856.082 -62.9992C837.904 -50.4282 820.731 -38.5485 805.068 -23.7147C778.083 1.8046 760.093 30.7809 753.111 60.0086C743.424 99.9217 752.419 145.68 778.398 188.799Z" stroke="#FFB816" stroke-width="2" stroke-miterlimit="10"/>
<path d="M868.474 334.561C889.043 353.417 912.443 374.725 940.12 385.976C962.765 395.216 987.423 397.479 1011.39 397.479C1023.47 397.479 1035.36 396.913 1046.68 396.348C1072.97 395.09 1100.14 393.77 1125.43 384.216C1153.61 373.594 1174.62 353.103 1181.6 329.407C1188.52 305.899 1182.23 281.448 1176.13 257.814C1173.93 249.266 1171.67 240.466 1170.09 231.855C1160.66 181.131 1173.87 129.338 1186.38 89.9279C1190.6 76.6654 1195.25 63.2143 1199.78 50.2661C1210.85 18.2728 1222.36 -14.852 1228.4 -48.8567C1234.63 -83.6785 1231.17 -109.575 1217.96 -127.992C1196.64 -157.722 1156.07 -161.368 1119.77 -162.499C1054.48 -164.51 986.92 -166.585 922.571 -148.042C900.806 -141.757 885.898 -131.637 868.663 -119.883C867.216 -118.878 865.769 -117.935 864.323 -116.929C858.976 -113.283 853.566 -109.701 848.282 -106.181C827.336 -92.2269 805.634 -77.833 786.386 -60.2335C751.538 -28.2401 728.39 8.34166 719.521 45.6777C713.167 72.2027 713.482 100.676 720.401 130.344C726.566 156.869 738.203 184.148 754.054 209.29C784.562 257.94 827.21 296.91 868.474 334.561Z" stroke="#FFB816" stroke-width="2" stroke-miterlimit="10"/>
<path d="M528.171 800.696C530.938 788.753 537.48 776.874 544.148 764.617C550.627 752.737 557.358 740.48 560.503 727.909C571.574 683.282 536.033 640.855 504.205 613.136C466.023 579.822 400.793 517.407 393.307 473.66C384.312 421.238 423.815 374.348 448.221 351.092C457.908 341.852 468.35 332.864 478.415 324.253C502.821 303.259 528.045 281.574 544.966 253.855C585.727 187.102 602.647 141.029 612.146 71.2599C631.079 -67.8389 731.661 -192.355 862.499 -238.554C902.693 -252.759 945.341 -260.051 986.606 -267.027C1012.14 -271.364 1038.56 -275.89 1064.1 -281.987C1129.71 -297.638 1174.24 -327.62 1224.82 -370.864C1248.97 -391.544 1285.14 -390.852 1311.18 -386.578C1345.34 -381.047 1377.92 -367.093 1397.05 -355.842C1423.4 -340.38 1445.67 -318.317 1461.4 -292.107C1477.88 -264.702 1485.86 -234.72 1484.42 -205.429C1482.59 -167.465 1466.05 -130.946 1449.95 -95.621C1428.18 -47.7881 1407.68 -2.59515 1421.64 44.9235C1433.28 84.5223 1464.92 110.419 1498.38 137.761C1518.64 154.355 1539.65 171.514 1555.69 192.005C1583.17 227.141 1595.57 273.905 1590.6 323.624C1585.82 371.143 1565.12 417.53 1533.73 450.78C1471.27 516.967 1373.83 548.206 1279.35 532.367C1236.27 525.138 1223.25 522.938 1178.52 524.195C1137.32 525.327 1087.63 546.949 1075.99 591.576C1065.05 633.564 1083.6 667.883 1101.59 701.07C1118.14 731.555 1135.12 763.045 1129.84 800.822" stroke="#FFB816" stroke-width="2" stroke-miterlimit="10"/>
<path d="M780.348 800.696C752.67 797.051 726.566 793.656 703.606 793.656H702.285C684.484 793.782 666.179 793.279 647.937 792.148C610.762 789.885 588.054 779.64 578.493 760.783C568.68 741.424 575.222 722.441 582.141 702.328C585.664 692.082 589.312 681.585 590.759 670.711C595.162 638.844 580.506 603.016 545.972 561.029C543.77 558.389 541.569 555.686 539.367 553.046L537.354 550.595C517.351 526.396 492.379 496.351 488.353 457.82C483.636 412.502 510.621 369.823 531.316 341.664C536.096 335.127 541.003 328.716 545.721 322.43C565.724 296.094 584.594 271.203 598.118 239.65C599.376 236.695 600.635 233.678 601.83 230.536C613.781 198.982 617.304 164.663 620.701 131.476C623.028 108.973 625.418 85.717 630.387 63.152C631.205 59.5692 632.086 53.7865 633.029 47.6896C634.35 38.9527 635.797 29.8386 637.181 24.9359C651.397 -24.4684 676.998 -70.1013 715.306 -114.603C738.391 -141.631 768.459 -165.327 804.691 -185.189C835.199 -201.909 870.361 -216.177 912.192 -228.874C947.04 -239.434 983.838 -244.713 1019.38 -249.868C1039.32 -252.759 1059.89 -255.713 1079.89 -259.547C1134.62 -270.295 1172.36 -291.918 1212.24 -321.02C1213.18 -321.711 1214.12 -322.403 1215.07 -323.031C1251.99 -349.807 1322.07 -328.814 1357.79 -306.123C1402.71 -277.65 1430.82 -224.285 1429.44 -170.104C1429.19 -159.167 1427.74 -147.728 1425.16 -135.094C1421.33 -116.174 1415.48 -97.6948 1409.81 -79.781C1396.04 -36.2852 1383.02 4.82223 1398.87 47.501C1410.88 79.9343 1436.61 102.688 1463.79 126.824C1482.09 142.978 1500.96 159.761 1515.11 179.623C1538.32 212.182 1548.07 254.609 1542.67 299.111C1537.38 342.292 1518.57 382.645 1489.76 412.69C1479.2 423.753 1467.24 433.684 1454.29 442.232C1416.55 467.123 1371.13 480.26 1335.84 488.997C1330.62 490.317 1325.21 491.762 1319.49 493.334C1300.74 498.488 1281.43 503.893 1264.64 503.076C1257.02 502.699 1250.61 502.322 1244.95 501.945C1225.26 500.688 1213.37 499.996 1184.37 502.636C1151.98 505.591 1114.11 516.716 1085.55 531.801C1061.15 544.687 1047.37 567.755 1045.8 598.491C1042.59 660.089 1021.77 723.887 992.896 761.035C977.107 781.274 957.041 793.594 934.333 800.633" stroke="#FFB816" stroke-width="2" stroke-miterlimit="10"/>
<path d="M810.541 723.572C824.694 725.395 838.344 727.155 851.302 727.155C858.221 727.155 864.889 726.652 871.305 725.395C891.874 721.372 908.103 710.058 922.256 689.756C942.7 660.466 959.809 613.638 961.13 607.164C962.262 601.633 963.08 595.473 963.961 588.873C967.861 558.891 972.704 521.618 1016.42 507.287C1031.58 502.322 1065.42 504.773 1083.6 506.093C1089.83 506.533 1093.92 506.847 1095.36 506.721C1120.84 504.27 1143.67 498.927 1163.8 494.213C1173.55 491.95 1182.8 489.751 1190.98 488.305C1221.55 482.711 1240.98 478.185 1265.14 471.02C1276.4 467.688 1286.34 462.22 1296.78 456.374C1301.69 453.672 1306.78 450.843 1312.32 448.077C1323.7 442.42 1336.22 437.266 1349.43 431.798C1371.32 422.81 1393.96 413.444 1414.09 400.622C1425.67 393.205 1436.42 384.531 1445.98 374.725C1471.77 348.389 1489.07 312.876 1494.86 274.785C1500.77 235.627 1493.6 197.536 1474.73 167.428C1462.34 147.692 1445.1 130.91 1428.5 114.63C1408.62 95.2078 1388.05 75.1569 1376.16 50.2662C1357.04 10.2902 1362.64 -29.12 1368.49 -70.856C1370 -81.6671 1371.63 -92.8553 1372.77 -104.295C1374.02 -115.986 1374.59 -125.603 1374.53 -134.717C1374.46 -159.105 1369.68 -182.801 1360.75 -203.292C1351 -225.731 1336.78 -243.582 1318.61 -256.342C1303.82 -266.713 1283.13 -275.387 1263.19 -279.536C1246.83 -282.993 1223.5 -285.004 1205.38 -275.136C1204.56 -274.696 1203.81 -274.256 1203.05 -273.816C1165.12 -252.571 1134.11 -241.885 1095.87 -236.983C1081.78 -235.16 1067.31 -233.777 1053.35 -232.394C1023.03 -229.44 991.701 -226.36 961.948 -219.069C894.956 -202.664 818.781 -180.978 762.735 -130.946C718.451 -91.3468 685.805 -50.0509 665.739 -8.12637C662.342 -1.08657 659.134 6.3932 655.863 14.8158C643.912 45.6149 639.383 81.9453 635.105 117.081C632.212 140.338 629.507 162.337 624.789 182.954C624.034 186.222 623.342 189.176 622.588 192.068C613.404 229.152 602.396 261.083 585.664 298.796L583.902 302.756C569.749 334.687 553.646 370.828 554.59 408.479C555.47 442.358 568.177 470.328 582.267 498.299C584.028 501.819 585.852 505.402 587.614 508.921C603.78 540.789 621.078 577.811 620.889 613.576C620.826 621.747 620.009 629.729 619.191 637.461C617.115 657.26 615.165 675.928 627.305 693.653C638.25 709.556 659.7 718.607 691.026 720.555C707.569 721.561 724.05 721.372 740.027 720.052C765.691 717.853 789.531 720.87 810.541 723.572Z" stroke="#FFB816" stroke-width="2" stroke-miterlimit="10"/>
<path d="M746.066 649.34C756.885 649.34 767.578 648.335 777.957 646.386C825.386 637.461 847.213 609.301 870.361 579.508C881.244 565.491 892.44 551.035 906.908 537.646C909.99 534.755 913.513 531.361 917.224 527.778C930.685 514.767 947.417 498.613 961.633 490.316C978.114 480.699 1007.55 476.614 1023.21 476.74C1030.83 476.802 1037.81 476.677 1044.48 476.488C1062.03 476.111 1078.63 475.734 1103.42 479.442C1118.45 481.705 1128.89 481.391 1136.57 481.139C1137.57 481.077 1138.58 481.077 1139.46 481.077C1159.15 480.637 1186.13 473.974 1203.31 468.38C1207.02 467.123 1210.6 465.991 1214.06 464.923C1232.62 459.077 1247.34 454.426 1259.67 443.049C1265.33 437.832 1269.48 431.861 1273.88 425.513C1278.16 419.353 1282.56 412.941 1288.66 407.033C1301.75 394.462 1319.93 385.851 1339.18 376.8C1350.81 371.331 1362.83 365.674 1373.71 359.012C1383.9 352.789 1393.4 345.309 1401.95 336.761C1424.66 314.133 1440.57 283.46 1446.74 250.46C1453.03 216.644 1448.56 182.828 1434.03 155.235C1422.9 133.99 1406.23 115.824 1390.13 98.2877C1377.04 84.0196 1363.52 69.2486 1353.08 52.969C1327.54 13.1816 1321.5 -24.9715 1320.12 -73.5587C1320.05 -76.3243 1319.99 -79.09 1319.93 -81.9185C1319.8 -87.5754 1319.68 -93.421 1319.42 -99.2665C1317.91 -135.345 1312 -180.098 1279.29 -206.435C1259.41 -222.463 1222.74 -234.594 1195.69 -227.24C1195.07 -227.051 1194.44 -226.926 1193.81 -226.737C1166.88 -218.754 1141.53 -214.983 1111.66 -214.48C1105.62 -214.355 1099.45 -214.355 1093.54 -214.292C1066.3 -214.04 1038.06 -213.789 1011.58 -209.326C945.53 -198.201 870.047 -182.927 809.597 -142.825L804.062 -139.117C764.307 -112.78 732.856 -91.9125 704.361 -52.6279C699.832 -46.4052 695.366 -39.554 691.026 -32.3885C668.381 5.45043 665.047 59.946 662.091 107.967C661.524 117.207 660.958 125.944 660.329 134.367C660.078 137.447 659.889 140.464 659.7 143.481C658.631 159.886 659.071 175.285 659.512 190.182C660.141 211.49 660.77 231.604 657.121 253.289C654.668 267.997 645.987 283.271 636.804 299.425C626.173 318.156 615.102 337.578 613.781 357C612.209 379.817 617.304 401.879 622.273 423.25C624.097 431.044 625.796 438.461 627.18 445.815C627.871 449.712 628.563 453.232 629.318 456.689C631.771 468.631 634.728 480.951 637.81 493.962C642.779 514.704 647.875 536.201 651.083 556.503C651.46 558.954 651.837 561.406 652.215 563.794C655.863 587.868 659.008 608.673 676.307 626.587C692.284 643.118 716.627 647.957 734.303 649.026C738.329 649.215 742.229 649.34 746.066 649.34Z" stroke="#FFB816" stroke-width="2" stroke-miterlimit="10"/>
<path d="M725.433 559.331C742.669 571.274 763.804 577.559 784.814 577.559C795.381 577.559 805.886 575.988 815.825 572.782C846.458 562.851 870.235 539.469 893.195 516.904C915.022 495.47 937.604 473.282 965.911 462.785C991.764 453.231 1030.57 443.363 1068.95 451.032C1105.37 458.323 1135.06 459.768 1168.21 455.997C1186.26 453.923 1204 447.512 1218.21 437.832C1234 427.147 1244.95 412.941 1249.85 396.787C1252.75 387.233 1255.07 383.525 1258.03 378.748C1260.04 375.542 1262.31 371.96 1265.2 365.863C1274.32 346.755 1294.45 337.012 1313.89 327.521C1320.49 324.315 1327.29 321.047 1333.58 317.401C1361.44 301.31 1383.08 274.282 1394.53 241.158C1405.91 208.033 1405.66 173.211 1393.71 143.041C1380.82 110.544 1356.41 83.8936 1332.76 58.123C1305.14 28.0153 1276.59 -3.09809 1267.78 -43.0112C1265.08 -55.3309 1264.2 -68.7819 1263.31 -81.7301C1261.49 -109.135 1259.6 -137.42 1240.35 -156.591C1226.01 -170.922 1205.44 -176.076 1185.32 -179.596C1173.3 -181.67 1160.97 -184.499 1147.89 -187.516C1118.95 -194.178 1089.07 -201.029 1061.65 -199.647C992.204 -196.064 923.011 -179.03 861.681 -150.368C807.836 -125.226 779.404 -98.8268 739.461 -52.6281C722.666 -33.2058 709.456 -9.6979 701.216 15.3814C692.976 40.4606 689.642 67.3627 691.529 93.0705C693.039 113.184 692.913 131.915 692.787 150.017C692.661 170.005 692.535 190.685 694.611 213.061C698.322 253.163 690.397 293.579 682.785 332.738C678.885 352.537 674.923 372.965 672.407 393.205C669.576 416.461 668.129 451.346 677.376 485.916C686.056 518.538 702.222 543.24 725.433 559.331Z" stroke="#FFB816" stroke-width="2" stroke-miterlimit="10"/>
<path d="M1199.53 151.526C1197.33 171.388 1195 192.005 1196.64 212.37C1198.52 235.249 1205.51 254.986 1216.83 269.443C1229.41 285.534 1247.97 295.151 1265.96 295.151C1267.28 295.151 1268.66 295.088 1269.98 294.962C1298.1 292.636 1319.24 267.871 1332.7 249.455C1340.87 238.204 1349.99 224.69 1355.34 209.73C1361.07 193.702 1361.63 177.485 1356.98 164.097C1352.57 151.4 1343.52 140.778 1335.53 131.35L1318.1 110.922C1306.53 97.3449 1294.95 83.831 1283.44 70.2543C1280.68 67.0486 1278.29 63.0888 1275.71 58.8775C1268.35 46.8093 1259.98 33.0439 1242.18 40.6494C1233.75 44.2322 1226.64 51.8377 1220.35 64.0316C1206.32 91.1222 1202.74 123.178 1199.53 151.526Z" stroke="#FFB816" stroke-width="2" stroke-miterlimit="10"/>
<path d="M723.106 519.795C737.7 534.378 758.709 542.235 780.851 542.235C790.223 542.235 799.847 540.852 809.22 537.898C842.621 527.589 866.65 502.007 880.992 482.397C891.434 468.128 897.598 455.746 900.366 443.489C903.951 427.65 901.435 412.124 893.509 400.873C883.319 386.291 866.021 380.319 849.226 374.537C845.703 373.28 841.992 372.023 838.533 370.703C809.157 359.577 782.927 340.029 762.735 314.07C762.106 313.253 761.477 312.436 760.848 311.619C751.853 299.928 744.053 289.808 727.887 302.253C714.048 312.939 706.5 332.612 703.229 343.361C696.75 364.731 696.184 387.296 695.618 409.107C694.611 450.215 695.869 492.516 723.106 519.795Z" stroke="#FFB816" stroke-width="2" stroke-miterlimit="10"/>
<path d="M752.419 403.01C744.619 416.336 750.154 441.101 757.262 451.66C764.999 463.1 777.328 470.894 790.286 472.465C791.922 472.654 793.62 472.78 795.256 472.78C803.873 472.78 811.988 470.014 818.152 464.986C826.266 458.323 830.418 447.763 828.72 438.084C826.518 425.45 812.742 414.701 804.691 409.422C792.928 401.753 779.152 396.096 769.591 395.091C761.854 394.273 755.941 396.976 752.419 403.01Z" stroke="#FFB816" stroke-width="2" stroke-miterlimit="10"/>
<path d="M1242.81 154.858C1235.89 169 1235.76 186.599 1242.43 200.868C1248.28 213.376 1258.97 221.987 1270.3 223.244C1271.3 223.37 1272.31 223.433 1273.38 223.433C1283.51 223.433 1294.01 217.964 1301.43 208.599C1311.81 195.651 1315.02 177.108 1309.67 161.394C1303.76 143.921 1291.05 132.481 1276.65 131.538C1263 130.658 1250.36 139.395 1242.81 154.858Z" stroke="#FFB816" stroke-width="2" stroke-miterlimit="10"/>
</g>
<defs>
<clipPath id="clip0_4_25">
<rect width="1436" height="500" fill="white"/>
</clipPath>
</defs>
</svg>
