<svg width="22" height="23" viewBox="0 0 22 23" fill="none" xmlns="http://www.w3.org/2000/svg">
<path d="M13.8781 0.282471C16.2869 0.282471 17.4359 0.504312 18.6295 1.1425C19.7091 1.71976 20.5624 2.57284 21.1398 3.65222C21.7781 4.84553 22 5.99432 22 8.40257V14.1575C22 16.5657 21.7781 17.7145 21.1398 18.9078C20.5624 19.9872 19.7091 20.8403 18.6295 21.4176C17.4359 22.0557 16.2869 22.2776 13.8781 22.2776H8.1219C5.71311 22.2776 4.56407 22.0557 3.3705 21.4176C2.29088 20.8403 1.43761 19.9872 0.860222 18.9078C0.22189 17.7145 0 16.5657 0 14.1575V8.40257C0 5.99432 0.22189 4.84553 0.860222 3.65222C1.43761 2.57284 2.29088 1.71976 3.3705 1.1425C4.56407 0.504312 5.71311 0.282471 8.1219 0.282471H13.8781ZM13.8781 2.28203H8.1219C6.01504 2.28203 5.17792 2.44365 4.31369 2.90574C3.58261 3.29664 3.01484 3.86429 2.62385 4.59521C2.16166 5.45924 2 6.29618 2 8.40257V14.1575C2 16.2639 2.16166 17.1008 2.62385 17.9649C3.01484 18.6958 3.58261 19.2634 4.31369 19.6543C5.17792 20.1164 6.01504 20.278 8.1219 20.278H13.8781C15.985 20.278 16.8221 20.1164 17.6863 19.6543C18.4174 19.2634 18.9852 18.6958 19.3762 17.9649C19.8383 17.1008 20 16.2639 20 14.1575V8.40257C20 6.29618 19.8383 5.45924 19.3762 4.59521C18.9852 3.86429 18.4174 3.29664 17.6863 2.90574C16.8221 2.44365 15.985 2.28203 13.8781 2.28203ZM11.3432 7.08244C11.7597 6.71979 12.3914 6.76334 12.7541 7.17971L15.7541 10.6234C16.082 10.9998 16.082 11.5603 15.7541 11.9367L12.7541 15.3803C12.3914 15.7967 11.7597 15.8403 11.3432 15.4776C10.9268 15.115 10.8832 14.4834 11.2459 14.0671L12.8022 12.2798H7C6.4902 12.2798 6.0695 11.8984 6.00779 11.4054L6 11.28C6 10.7279 6.44772 10.2803 7 10.2803H12.8022L11.2459 8.49298C10.9134 8.11131 10.9223 7.54885 11.2469 7.17842L11.3432 7.08244Z" fill="#FFB816"/>
</svg>
