<svg width="22" height="23" viewBox="0 0 22 23" fill="none" xmlns="http://www.w3.org/2000/svg">
<path d="M13.8781 0.253906C16.2869 0.253906 17.4359 0.47575 18.6295 1.11395C19.7091 1.69121 20.5624 2.5443 21.1398 3.62369C21.7781 4.81702 22 5.96582 22 8.3741V14.1291C22 16.5374 21.7781 17.6862 21.1398 18.8795C20.5624 19.9589 19.7091 20.812 18.6295 21.3892C17.4359 22.0274 16.2869 22.2493 13.8781 22.2493H8.1219C5.71311 22.2493 4.56407 22.0274 3.3705 21.3892C2.29088 20.812 1.43761 19.9589 0.860222 18.8795C0.22189 17.6862 0 16.5374 0 14.1291V8.3741C0 5.96582 0.22189 4.81702 0.860222 3.62369C1.43761 2.5443 2.29088 1.69121 3.3705 1.11395C4.56407 0.47575 5.71311 0.253906 8.1219 0.253906H13.8781ZM13.8781 2.25348H8.1219C6.01504 2.25348 5.17792 2.41511 4.31369 2.8772C3.58261 3.26811 3.01484 3.83576 2.62385 4.56669C2.16166 5.43073 2 6.26768 2 8.3741V14.1291C2 16.2355 2.16166 17.0724 2.62385 17.9365C3.01484 18.6674 3.58261 19.2351 4.31369 19.626C5.17792 20.0881 6.01504 20.2497 8.1219 20.2497H13.8781C15.985 20.2497 16.8221 20.0881 17.6863 19.626C18.4174 19.2351 18.9852 18.6674 19.3762 17.9365C19.8383 17.0724 20 16.2355 20 14.1291V8.3741C20 6.26768 19.8383 5.43073 19.3762 4.56669C18.9852 3.83576 18.4174 3.26811 17.6863 2.8772C16.8221 2.41511 15.985 2.25348 13.8781 2.25348ZM14.2929 8.21179C14.6834 7.82135 15.3166 7.82135 15.7071 8.21179C16.0976 8.60223 16.0976 9.23526 15.7071 9.6257L10.596 14.7357C10.2055 15.1262 9.57231 15.1262 9.18178 14.7357L6.29289 11.8475C5.90237 11.457 5.90237 10.824 6.29289 10.4335C6.68342 10.0431 7.31658 10.0431 7.70711 10.4335L9.88889 12.6149L14.2929 8.21179Z" fill="#FFB816"/>
</svg>
