<svg width="19" height="22" viewBox="0 0 19 22" fill="none" xmlns="http://www.w3.org/2000/svg">
<path d="M10.8017 2.29409H4.39864C3.06803 2.29409 1.99546 3.29797 1.99546 4.52861V17.2609C1.99546 18.4916 3.06803 19.4955 4.39864 19.4955H14.6014C15.932 19.4955 17.0045 18.4916 17.0045 17.2609V10.029H14.4854C12.451 10.029 10.8017 8.41789 10.8017 6.4305V2.29409ZM12.7682 6.83635C12.7682 7.53865 13.351 8.10799 14.07 8.10799H16.6363L12.7682 3.8113V6.83635ZM0 4.52861C0 2.24332 1.9727 0.396973 4.39864 0.396973H10.958C11.8218 0.396973 12.6429 0.754347 13.2021 1.37557L18.3031 7.04169C18.7528 7.5412 19 8.17498 19 8.83055V17.2609C19 19.5462 17.0273 21.3926 14.6014 21.3926H4.39864C1.9727 21.3926 0 19.5462 0 17.2609V4.52861Z" fill="#FFB816"/>
</svg>
