<svg width="25" height="20" viewBox="0 0 25 20" fill="none" xmlns="http://www.w3.org/2000/svg">
<path d="M19.5815 5.32958C19.5815 3.62986 18.2133 2.25355 16.5236 2.25355C14.8339 2.25355 13.4657 3.62986 13.4657 5.32958C13.4657 7.0293 14.8339 8.40562 16.5236 8.40562C18.2133 8.40562 19.5815 7.0293 19.5815 5.32958ZM21.5129 5.32958C21.5129 8.10226 19.28 10.3484 16.5236 10.3484C13.7672 10.3484 11.5343 8.10226 11.5343 5.32958C11.5343 2.55691 13.7672 0.310791 16.5236 0.310791C19.28 0.310791 21.5129 2.55691 21.5129 5.32958ZM9.97854 16.6392C9.97854 17.469 9.88115 17.3639 10.3383 17.3639H22.7089C23.1661 17.3639 23.0687 17.469 23.0687 16.6392C23.0687 14.5965 20.0878 13.3704 16.5236 13.3704C12.9594 13.3704 9.97854 14.5965 9.97854 16.6392ZM16.5236 11.4277C21.0592 11.4277 25 13.0486 25 16.6392C25 18.5125 24.2644 19.3066 22.7089 19.3066H10.3383C8.78277 19.3066 8.04721 18.5125 8.04721 16.6392C8.04721 13.0486 11.988 11.4277 16.5236 11.4277ZM9.6957 6.31564C10.0728 6.69499 10.0728 7.31003 9.6957 7.68938L4.3309 13.0859C3.95378 13.4653 3.34236 13.4653 2.96524 13.0859L0.282837 10.3877C-0.0942789 10.0083 -0.0942789 9.39327 0.282837 9.01392C0.659953 8.63457 1.27138 8.63457 1.64849 9.01392L3.64807 11.0253L8.33005 6.31564C8.70716 5.9363 9.31859 5.9363 9.6957 6.31564Z" fill="#FFB816"/>
</svg>
