<svg width="22" height="23" viewBox="0 0 22 23" fill="none" xmlns="http://www.w3.org/2000/svg">
<path d="M17.3745 10.3938C17.3745 9.79423 17.8607 9.3082 18.4604 9.3082C19.0173 9.3082 19.4763 9.72727 19.539 10.2672L19.5463 10.3938V16.1499C19.5463 18.3006 19.3223 19.0805 18.9017 19.8667C18.4811 20.653 17.8638 21.27 17.0773 21.6905C16.2908 22.111 15.5107 22.335 13.3594 22.335H6.18698C4.03563 22.335 3.2555 22.111 2.469 21.6905C1.6825 21.27 1.06525 20.653 0.644625 19.8667C0.224 19.0805 0 18.3006 0 16.1499V8.97985C0 6.82918 0.224 6.0493 0.644625 5.26305C1.06525 4.47679 1.6825 3.85974 2.469 3.43925C3.2555 3.01876 4.03563 2.79483 6.18698 2.79483H11.945V4.96595H6.05349C4.41073 4.96595 3.91046 5.06253 3.39983 5.33553C3.0234 5.53678 2.74282 5.81727 2.54151 6.19358C2.28359 6.67569 2.18309 7.14856 2.17272 8.58307L2.17182 16.2834C2.17182 17.9256 2.26842 18.4257 2.54151 18.9362C2.74282 19.3125 3.0234 19.593 3.39983 19.7943C3.91046 20.0673 4.41073 20.1638 6.05349 20.1638H13.4928C15.1356 20.1638 15.6359 20.0673 16.1465 19.7943C16.5229 19.593 16.8035 19.3125 17.0048 18.9362C17.2779 18.4257 17.3745 17.9256 17.3745 16.2834V10.3938ZM17.7961 2.62312L19.66 4.59787C16.9411 7.31587 12.2329 12.0226 11.394 12.8612C10.2423 14.0126 8.13066 14.9721 7.74674 14.5883C7.36281 14.2045 8.32263 12.0936 9.47441 10.9422L9.62977 10.7869C10.7906 9.6264 15.2219 5.19657 17.7961 2.62312ZM11.945 2.79483C12.5447 2.79483 13.0309 3.28085 13.0309 3.88039C13.0309 4.43711 12.6117 4.89594 12.0716 4.95865L11.945 4.96595V2.79483ZM21.5681 0.77138C22.144 1.34709 22.144 2.1147 21.5681 2.6904L21.2617 2.9967C21.1397 3.1186 20.9876 3.27072 20.8099 3.44834L18.8903 1.52932C19.29 1.12967 19.5607 0.85913 19.6485 0.77138C20.2243 0.195673 20.9922 0.195673 21.5681 0.77138Z" fill="#FFB816"/>
</svg>
