<svg width="174" height="45" viewBox="0 0 174 45" fill="none" xmlns="http://www.w3.org/2000/svg">
<g clip-path="url(#clip0_9_23)">
<path d="M20.0875 10.4377V21.9942C19.0609 21.4578 18.1722 20.6455 17.6053 19.6339C16.3336 17.4115 16.4408 14.392 17.8811 11.9397C18.1722 11.4493 18.5553 10.9282 18.9996 10.4224H20.0875V10.4377Z" fill="#FFB816"/>
<path d="M20.0875 23.9408V27.7879C19.3214 27.1901 18.6319 26.4698 17.9884 25.7494C16.3335 23.9102 14.6634 21.887 13.5909 19.5266C12.457 17.059 12.1506 14.4687 12.7022 12.2463C12.8401 11.6486 13.0699 11.0355 13.361 10.4377H16.7626C16.6093 10.6523 16.4868 10.8516 16.3642 11.0661C14.6174 14.0549 14.5102 17.764 16.0731 20.5229C16.9618 22.1016 18.4174 23.3124 20.0875 23.9408Z" fill="#FFB816"/>
<path d="M20.0875 29.9183V33.4589C19.5053 32.9377 18.9384 32.386 18.3714 31.8342C15.307 28.8148 12.3804 25.8107 10.3885 22.2395C8.15147 18.2545 7.416 14.0702 8.30469 10.4377H11.4458C11.2619 10.8976 11.1087 11.3574 11.0014 11.8172C10.3426 14.4228 10.695 17.4115 11.9974 20.247C13.1772 22.8219 14.9546 24.9677 16.686 26.9142C17.6513 28.0178 18.7392 29.1213 20.0875 29.9183Z" fill="#FFB816"/>
<path d="M5.20959 32.5698C6.40473 34.0719 7.66116 35.5126 8.97888 36.892H5.20959V32.5698Z" fill="#FFB816"/>
<path d="M15.0312 36.892H11.4458C9.20871 34.6236 7.07891 32.2326 5.20959 29.6423V25.1669C5.3475 25.3968 5.47007 25.6267 5.6233 25.8566C8.10551 29.9336 11.3538 33.3821 15.0312 36.892Z" fill="#FFB816"/>
<path d="M20.0875 35.7732V36.8921H17.6053C15.7054 35.1142 13.9127 33.3822 12.2732 31.6043C10.3272 29.4892 8.5805 27.3281 7.12488 24.9371C6.37409 23.7109 5.74588 22.4694 5.20959 21.2279V10.4377H6.48135C5.63862 14.3921 6.46602 18.8829 8.82566 23.0978C10.9401 26.8683 13.9433 29.9796 17.115 33.091C18.0803 34.0413 19.0456 34.9609 20.0875 35.7732Z" fill="#FFB816"/>
<path d="M34.3066 5.27246V19.6492H37.0647V7.9087H44.2508V19.6492H47.0088V5.27246H34.3066Z" fill="#3A362B"/>
<path d="M62.6682 8.33791C62.4077 7.75548 62.0093 7.20371 61.4577 6.72858C60.5077 5.87027 59.3433 5.39513 57.9642 5.30317C57.7804 5.28784 57.6118 5.28784 57.428 5.28784H50.3644V19.6645H53.1224V15.0971H57.428C58.7304 15.0971 59.8489 14.7906 60.7682 14.1928C61.0134 14.0395 61.2432 13.8556 61.473 13.6564C62.5303 12.6908 63.0512 11.5412 63.0512 10.1771C63.0666 9.51809 62.9287 8.90501 62.6682 8.33791ZM59.4811 11.8325C59.0062 12.2616 58.332 12.4609 57.428 12.4609H53.1224V7.90875H57.428C58.3167 7.90875 59.0062 8.12333 59.4811 8.53716C59.9561 8.95099 60.186 9.50276 60.186 10.1925C60.186 10.8669 59.9561 11.4186 59.4811 11.8325Z" fill="#3A362B"/>
<path d="M78.5114 7.00433C77.3163 5.8548 75.8913 5.14976 74.2059 4.90453C73.7462 4.84322 73.2559 4.79724 72.7656 4.79724C70.4519 4.79724 68.5366 5.53294 67.0197 7.00433C66.9431 7.08096 66.8512 7.17292 66.7746 7.24956C65.4722 8.62898 64.798 10.2996 64.7367 12.2462C64.7367 12.3228 64.7367 12.3994 64.7367 12.4607C64.7367 13.9321 65.0738 15.2349 65.7786 16.3844C66.1157 16.9362 66.5294 17.4573 67.0197 17.9325C67.8931 18.7754 68.9044 19.3885 70.0535 19.741C70.6817 19.9403 71.3712 20.0629 72.0914 20.1089C72.3212 20.1242 72.5511 20.1242 72.7809 20.1242C74.2825 20.1242 75.6155 19.8177 76.7953 19.1893C77.3623 18.8827 77.8986 18.4996 78.3889 18.0551C78.4348 18.0091 78.4808 17.9631 78.5268 17.9171C79.3082 17.1508 79.9058 16.2925 80.2735 15.3422C80.5493 14.6372 80.7179 13.8861 80.7791 13.0738C80.7945 12.8746 80.7945 12.66 80.7945 12.4454C80.7945 10.2843 80.0284 8.46039 78.5114 7.00433ZM76.4583 16.0626C76.1518 16.3538 75.83 16.6143 75.4776 16.8136C74.6962 17.2734 73.7922 17.5033 72.7656 17.5033C72.6277 17.5033 72.4745 17.5033 72.3366 17.488C71.0342 17.4113 69.9463 16.9362 69.0729 16.0626C68.0923 15.097 67.602 13.9015 67.602 12.4607C67.602 11.02 68.0923 9.82449 69.0729 8.85889C70.0382 7.89329 71.2793 7.41815 72.7656 7.41815C73.1793 7.41815 73.5623 7.44881 73.9301 7.52544C74.9107 7.70937 75.7534 8.15385 76.4583 8.85889C77.4389 9.82449 77.9139 11.02 77.9139 12.4607C77.9139 12.522 77.9139 12.568 77.9139 12.6293C77.8832 13.9934 77.3929 15.1429 76.4583 16.0626Z" fill="#3A362B"/>
<path d="M83.4299 5.27246V19.6492H94.2168V17.0129H86.1879V13.6563H92.7765V11.0201H86.1879V7.9087H94.2168V5.27246H83.4299Z" fill="#3A362B"/>
<path d="M104.513 12.2309L109.309 5.27246H106.184L102.23 11.0201H99.4877V5.27246H96.7297V19.6492H99.4877V13.6563H102.353L102.69 14.1468L106.429 19.6492H109.662L104.513 12.2309Z" fill="#3A362B"/>
<path d="M110.029 5.27246V7.9087H115.178V19.6492H117.936V7.9087H123.084V5.27246H110.029Z" fill="#3A362B"/>
<path d="M135.066 5.27246V11.0201H127.757V5.27246H124.999V19.6492H127.757V13.6563H135.066V19.6492H137.824V5.27246H135.066Z" fill="#3A362B"/>
<path d="M154.832 19.6492H157.59V5.27246H154.832V19.6492ZM151.813 11.2653C150.756 10.2997 149.408 9.82457 147.768 9.82457H143.938V5.27246H141.18V19.6492H147.768C149.392 19.6492 150.741 19.174 151.813 18.2084C152.871 17.2428 153.407 16.0933 153.407 14.7445C153.392 13.3804 152.871 12.2309 151.813 11.2653ZM149.806 16.3998C149.331 16.8137 148.657 17.0282 147.753 17.0282H143.922V12.4608H147.753C148.642 12.4608 149.331 12.6601 149.806 13.0739C150.281 13.4877 150.511 14.0395 150.511 14.7292C150.511 15.4342 150.281 15.986 149.806 16.3998Z" fill="#3A362B"/>
<path d="M169.082 0C169.082 0.475136 168.928 0.858311 168.637 1.1342C168.346 1.41008 167.932 1.54802 167.396 1.54802C166.875 1.54802 166.461 1.41008 166.155 1.1342C165.864 0.858311 165.711 0.475136 165.711 0H163.428C163.428 1.04223 163.78 1.88522 164.485 2.51362C165.19 3.15736 166.155 3.47922 167.381 3.47922C168.607 3.47922 169.572 3.15736 170.277 2.51362C170.982 1.86989 171.334 1.04223 171.334 0H169.082V0ZM170.644 5.27248L163.688 15.8174H163.443L163.688 13.9016V5.27248H160.93V19.6492H164.286L171.227 9.10422H171.472L171.227 11.0201V19.6492H173.985V5.27248H170.644Z" fill="#3A362B"/>
<path d="M46.5951 39.4669V27.6652H43.8218V39.4669H37.08V27.6652H34.3066V42.1185H45.6298V45H48.3878V39.4669H46.5951Z" fill="#3A362B"/>
<path d="M53.4442 30.3167H61.519V27.6652H50.6862V42.1185H61.519V39.4669H53.4442V36.095H60.0787V33.4434H53.4442V30.3167Z" fill="#3A362B"/>
<path d="M74.1599 27.6652V33.4434H66.8205V27.6652H64.0472V42.1185H66.8205V36.095H74.1599V42.1185H76.9332V27.6652H74.1599Z" fill="#3A362B"/>
<path d="M78.8485 27.6652V30.3167H84.0275V42.1185H86.8008V30.3167H91.9798V27.6652H78.8485Z" fill="#3A362B"/>
<path d="M105.31 29.3665C105.234 29.2898 105.142 29.1979 105.065 29.1212C103.992 28.1556 102.644 27.6652 101.005 27.6652H93.895V42.1185H96.6684V37.5357H101.005C102.659 37.5357 104.008 37.0606 105.08 36.095C105.295 35.8957 105.479 35.6965 105.647 35.4972C106.321 34.6696 106.674 33.704 106.674 32.6004C106.659 31.359 106.214 30.2861 105.31 29.3665ZM103.058 34.2558C102.583 34.6696 101.893 34.8842 101.005 34.8842H96.6684V30.3014H101.005C101.909 30.3014 102.583 30.516 103.058 30.9298C103.533 31.3436 103.763 31.8954 103.763 32.5851C103.778 33.2902 103.533 33.8419 103.058 34.2558Z" fill="#3A362B"/>
<path d="M2.60479 6.06946H0V19.6798H2.60479V6.06946Z" fill="#FFB816"/>
<path d="M25.2971 5.21106H0V7.81665H25.2971V5.21106Z" fill="#FFB816"/>
<path d="M25.2971 6.06946H22.6923V19.6798H25.2971V6.06946Z" fill="#FFB816"/>
<path d="M25.2971 27.6652H22.6923V41.2755H25.2971V27.6652Z" fill="#FFB816"/>
<path d="M26.5995 39.5129H23.9948V44.7241H26.5995V39.5129Z" fill="#FFB816"/>
<path d="M25.2971 39.5129H0V42.1185H25.2971V39.5129Z" fill="#FFB816"/>
<path d="M2.60479 27.6652H0V41.2755H2.60479V27.6652Z" fill="#FFB816"/>
</g>
<defs>
<clipPath id="clip0_9_23">
<rect width="174" height="45" fill="white"/>
</clipPath>
</defs>
</svg>
