<svg width="217" height="318" viewBox="0 0 217 318" fill="none" xmlns="http://www.w3.org/2000/svg">
<path d="M163.875 135.133C155.5 130.83 148.25 124.314 143.625 116.2C133.25 98.3746 134.125 74.1561 145.875 54.4862C148.25 50.5522 151.375 46.3723 155 42.3154H163.875V135.133Z" fill="#FFB816"/>
<path d="M163.875 150.746V181.603C157.625 176.809 152 171.031 146.75 165.253C133.25 150.5 119.625 134.273 110.875 115.34C101.625 95.5475 99.1247 74.7712 103.625 56.9453C104.75 52.1508 106.625 47.2333 109 42.4388H136.75C135.5 44.1599 134.5 45.7581 133.5 47.4792C119.25 71.4519 118.375 101.203 131.125 123.331C138.375 135.994 150.25 145.706 163.875 150.746Z" fill="#FFB816"/>
<path d="M163.875 198.691V227.09C159.125 222.91 154.5 218.484 149.875 214.059C124.875 189.84 101 165.744 84.7504 137.1C66.5004 105.137 60.5005 71.5748 67.7504 42.4388H93.3754C91.8754 46.1269 90.6254 49.815 89.7504 53.5031C84.3754 74.4024 87.2504 98.375 97.8754 121.118C107.5 141.772 122 158.983 136.125 174.596C144 183.447 152.875 192.299 163.875 198.691Z" fill="#FFB816"/>
<path d="M42.5001 219.959C52.25 232.007 62.5 243.563 73.25 254.627H42.5001V219.959Z" fill="#FFB816"/>
<path d="M122.625 254.626H93.375C75.125 236.431 57.75 217.253 42.5001 196.477V160.579C43.6251 162.423 44.6251 164.267 45.8751 166.111C66.125 198.813 92.625 226.473 122.625 254.626Z" fill="#FFB816"/>
<path d="M163.875 245.653V254.628H143.625C128.125 240.367 113.5 226.475 100.125 212.215C84.25 195.249 70 177.915 58.125 158.737C52 148.902 46.8751 138.944 42.5001 128.986V42.4388H52.875C46 74.1565 52.75 110.177 72 143.985C89.25 174.227 113.75 199.183 139.625 224.139C147.5 231.761 155.375 239.138 163.875 245.653Z" fill="#FFB816"/>
<path d="M21.25 7.40201H0V116.57H21.25V7.40201Z" fill="#FFB816"/>
<path d="M206.375 0.516846H0V21.4161H206.375V0.516846Z" fill="#FFB816"/>
<path d="M206.375 7.40201H185.125V116.57H206.375V7.40201Z" fill="#FFB816"/>
<path d="M206.375 180.62H185.125V289.788H206.375V180.62Z" fill="#FFB816"/>
<path d="M217 275.649H195.75V317.448H217V275.649Z" fill="#FFB816"/>
<path d="M206.375 275.649H0V296.548H206.375V275.649Z" fill="#FFB816"/>
<path d="M21.25 180.62H0V289.788H21.25V180.62Z" fill="#FFB816"/>
</svg>
